<?xml version="1.0" encoding="utf-8"?>
<!-- Generator: Adobe Illustrator 23.1.0, SVG Export Plug-In . SVG Version: 6.00 Build 0)  -->
<svg version="1.1" id="Layer_1" xmlns="http://www.w3.org/2000/svg" xmlns:xlink="http://www.w3.org/1999/xlink" x="0px" y="0px"
	 viewBox="0 0 1024 370" style="enable-background:new 0 0 1024 370;" xml:space="preserve">
<g>
	<g>
		<path d="M101.1,174.1l-2.6,4.9c-10.7,20-16.1,35.5-16.1,46.5c0,3.2,1.2,6.4,3.7,9.5c-2,0.7-6.6,2.4-13.8,5
			c-3.3,1.2-6.5,1.8-9.5,1.8c-6,0-9-2.9-9-8.6c0-11.8,7.3-29.9,22.1-54.2l4-6.5h-6.5c-14,0-24.8,2.2-32.5,6.5
			c4-14.4,14.8-21.6,32.3-21.6l15.8,0.4l3.5-5.1c13.4-20.1,33.8-47.1,61.3-81.1c9.3-11.5,16.2-18.7,20.8-21.5s13.5-5.4,26.7-7.7
			c-2.5,15.3-3.7,29.6-3.7,42.8c0,35,4,70.5,12.1,106.4c4.4,19.8,11.2,32.5,20.3,38.2c-8,7.9-14.9,11.9-20.6,11.9
			c-13.4,0-23.9-23.1-31.2-69.2c-14.1,1.5-28.2,2.3-42.5,2.3L101.1,174.1z M110.3,159l25.8,0.6c17.6,0,31.1-0.6,40.5-1.8
			c-3.9-29.9-5.9-54.7-5.9-74.4l0.1-9.6c-2.8,3.6-9.1,11.3-18.9,23.3c-17.7,21.7-30.7,40.7-38.9,56.8L110.3,159z"/>
		<path d="M307.3,191c30.2-63.9,57.4-95.9,81.5-95.9c18.8,0,28.2,18.7,28.2,56.2l0.3,15.4c0,17.9,0.9,30.3,2.8,37.1
			c1.8,6.9,5.2,10.3,10,10.3c7.3,0,15.6-5.9,25-17.5c9.3-11.7,24.5-35.1,45.5-70.4l10.7,6.2c-18.7,35.3-35.5,61.6-50.3,78.7
			s-28.1,25.7-39.8,25.7c-10.8,0-18.4-5.2-22.8-15.7s-6.6-28.6-6.6-54.4l-0.1-11c0-14-0.9-23.8-2.7-29.4c-1.8-5.7-4.9-8.5-9.3-8.5
			c-11.2,0-29.3,22.4-54.3,67.3c-6.1,11-10.1,18-11.9,21.2c-6.6,11.4-9.8,19.7-9.8,24.8c0,2,0.6,4,1.7,5.9c-5,2-9.1,3.1-12.5,3.1
			c-8.6,0-12.9-4.8-12.9-14.3c0-2.8,1.1-15,3.3-36.8l2.8-27.7c1.3-11.8,1.9-20.9,1.9-27.4c0-9-2-16.2-6.1-21.3
			c1.8-0.6,4.8-1.6,9-3.1c5.3-1.9,9.5-2.8,12.7-2.8c6.6,0,10,4.9,10,14.6c0,5.1-0.6,13.9-1.9,26.3c-0.2,2.7-0.5,5.3-0.7,7.8
			L307.3,191z"/>
		<path d="M609.5,147.9c1.2,4.2,1.8,8.4,1.8,12.8c0,21.4-7.5,40-22.5,55.8s-32.6,23.7-52.9,23.7c-14.8,0-26.9-4.4-36.2-13.3
			c-9.3-8.9-14-20.3-14-34.2c0-10.1,1.9-24.6,5.6-43.5l21.5-108.3c-4.2,0.8-7.9,1.1-11,1.1c-18.2,0-27.4-9.5-27.4-28.6
			c5.5,5.3,14.4,8.1,26.6,8.1c10.7,0,24.8-2.8,42.5-8.3l-30.1,151.2c-2,10.2-2.9,19.3-2.9,27.1c0,10.5,2.8,19,8.3,25.5
			s12.7,9.8,21.6,9.8c13.4,0,24.7-6.1,34-18.2c9.3-12.1,14-26.8,14-44c0-8.5-1.4-16.8-4.2-24.9c-10.7-3.6-19.5-8.2-26.4-13.9
			c-6.8-5.7-10.3-11.3-10.3-16.9c0-2.9,1.2-6.7,3.6-11.4c23,1.8,40.5,11.8,52.5,29.9c11.1,5.3,22.8,7.9,35,7.9
			c12.5,0,25.3-3.8,38.2-11.4l6.5,10.3c-14.8,11.2-31.4,16.9-49.8,16.9C625.1,151.1,617.1,150,609.5,147.9z"/>
		<path d="M679,236c-5.8,2.7-10.5,4.1-14,4.1c-8.7,0-13.1-3.9-13.1-11.5c0-3.9,1.5-13.7,4.6-29.2l6.4-31.8c3.9-18.9,5.9-32.9,5.9-42
			c0-5-1.4-9.1-4.2-12.4c9-3.1,16.2-4.6,21.9-4.6c6,0,9,3.8,9,11.4c0,4.7-2.1,17-6.3,36.9l-7.2,37.2c16.1-31.2,32.3-55.5,48.5-72.9
			c16.3-17.3,31.1-26,44.4-26c4.7,0,8.7,1.3,12.1,4c3.4,2.7,5.1,5.9,5.1,9.8c0,6-6.5,13.9-19.4,23.8c-3.2-6.7-7.8-10.1-13.8-10.1
			c-10.8,0-24.6,11.5-41.3,34.5c-10.4,14.3-19.4,29-27,44.3c-7.6,15.2-11.5,26.1-11.5,32.5L679,236z"/>
		<path d="M815.2,183.7c0,24.9,10.6,37.3,31.7,37.3c18.3,0,38.5-8.7,60.6-26.1c22.1-17.4,41.9-40.4,59.7-68.8l10.8,6
			c-16.7,31.2-38.4,56.9-65.1,77.3c-26.7,20.4-52,30.7-75.9,30.7c-15.3,0-27.4-5-36.4-14.8c-8.9-9.9-13.4-23.4-13.4-40.5
			c0-24.7,8.1-45.8,24.2-63.4c16.2-17.5,35.6-26.3,58.3-26.3c11,0,19.8,2.8,26.4,8.3c6.6,5.5,9.9,12.9,9.9,22.2
			c0,15.2-9.2,28.7-27.5,40.5C860.1,177.8,839,183.7,815.2,183.7z M816.2,171.5c17.8-0.9,33.1-6,45.8-15.3s19.1-20,19.1-32.1
			c0-10.9-4.9-16.3-14.6-16.3c-11.6,0-22.3,6.2-32.1,18.6C824.6,138.8,818.6,153.8,816.2,171.5z"/>
	</g>
	<g>
		<path d="M51.3,331.7c0,0.3-0.1,0.6-0.2,0.8c-0.2,0.2-0.4,0.4-0.8,0.6c-0.4,0.1-0.9,0.2-1.5,0.3s-1.4,0.2-2.4,0.2
			c-0.9,0-1.7,0-2.3-0.2c-0.6-0.1-1.1-0.2-1.5-0.3c-0.4-0.2-0.6-0.3-0.8-0.6c-0.2-0.2-0.2-0.5-0.2-0.8v-70.2c0-0.3,0.1-0.6,0.3-0.8
			s0.5-0.4,0.9-0.6c0.4-0.1,0.9-0.2,1.5-0.3s1.4-0.2,2.2-0.2c0.9,0,1.7,0,2.4,0.2c0.6,0.1,1.1,0.2,1.5,0.3c0.4,0.2,0.6,0.3,0.8,0.6
			s0.2,0.5,0.2,0.8L51.3,331.7L51.3,331.7z"/>
		<path d="M113.4,331.8c0,0.3-0.1,0.6-0.2,0.7c-0.2,0.2-0.4,0.4-0.7,0.6c-0.4,0.2-0.8,0.3-1.4,0.4c-0.6,0.1-1.4,0.1-2.3,0.1
			s-1.7,0-2.3-0.1c-0.6-0.1-1.1-0.2-1.4-0.4c-0.4-0.2-0.6-0.3-0.7-0.6c-0.2-0.2-0.2-0.5-0.2-0.7V302c0-2.9-0.2-5.2-0.7-7
			s-1.1-3.3-2-4.6s-2-2.3-3.4-2.9s-3-1-4.8-1c-2.3,0-4.7,0.8-7,2.5s-4.8,4.1-7.3,7.3v35.5c0,0.3-0.1,0.6-0.2,0.7
			c-0.2,0.2-0.4,0.4-0.7,0.6c-0.4,0.2-0.8,0.3-1.4,0.4c-0.6,0.1-1.4,0.1-2.3,0.1s-1.7,0-2.3-0.1c-0.6-0.1-1.1-0.2-1.5-0.4
			s-0.6-0.3-0.7-0.6c-0.1-0.2-0.2-0.5-0.2-0.7V281c0-0.3,0-0.6,0.2-0.7s0.4-0.4,0.7-0.6c0.4-0.2,0.8-0.3,1.3-0.3
			c0.6,0,1.2-0.1,2.1-0.1c0.8,0,1.5,0,2.1,0.1c0.6,0,1,0.2,1.3,0.3c0.3,0.2,0.5,0.4,0.7,0.6c0.2,0.2,0.2,0.5,0.2,0.7v6.7
			c2.9-3.2,5.7-5.5,8.6-7c2.8-1.5,5.7-2.2,8.6-2.2c3.4,0,6.2,0.6,8.6,1.7c2.3,1.1,4.2,2.7,5.6,4.6s2.5,4.2,3.1,6.8s0.9,5.7,0.9,9.3
			v31L113.4,331.8L113.4,331.8z"/>
		<path d="M155.8,328c0,1.1-0.1,2-0.2,2.6c-0.2,0.6-0.4,1.1-0.7,1.4c-0.3,0.3-0.7,0.6-1.4,0.9c-0.6,0.3-1.3,0.5-2.1,0.7
			s-1.6,0.3-2.5,0.4c-0.9,0.1-1.7,0.2-2.6,0.2c-2.6,0-4.9-0.4-6.8-1.1c-1.9-0.7-3.4-1.8-4.6-3.2c-1.2-1.4-2.1-3.2-2.6-5.4
			c-0.6-2.2-0.8-4.7-0.8-7.7v-29.7h-7.1c-0.6,0-1-0.3-1.4-0.9c-0.4-0.6-0.5-1.6-0.5-2.9c0-0.7,0-1.3,0.1-1.8s0.2-0.9,0.4-1.2
			c0.2-0.3,0.4-0.6,0.6-0.7c0.2-0.1,0.5-0.2,0.8-0.2h7.1v-12c0-0.3,0.1-0.5,0.2-0.7c0.1-0.2,0.4-0.4,0.7-0.6
			c0.4-0.2,0.8-0.3,1.5-0.4c0.6-0.1,1.4-0.1,2.3-0.1c0.9,0,1.7,0,2.3,0.1s1.1,0.2,1.4,0.4c0.4,0.2,0.6,0.4,0.7,0.6
			c0.2,0.2,0.2,0.5,0.2,0.7v12.1h13c0.3,0,0.6,0,0.8,0.2c0.2,0.1,0.4,0.4,0.6,0.7c0.2,0.3,0.3,0.7,0.4,1.2s0.1,1.1,0.1,1.8
			c0,1.4-0.2,2.4-0.5,2.9c-0.4,0.6-0.8,0.9-1.4,0.9h-13v28.4c0,3.5,0.5,6.2,1.6,7.9c1,1.8,2.9,2.7,5.6,2.7c0.9,0,1.7-0.1,2.3-0.3
			c0.7-0.2,1.3-0.4,1.8-0.6c0.5-0.2,1-0.4,1.4-0.6c0.4-0.2,0.7-0.3,1-0.3c0.2,0,0.4,0,0.6,0.2c0.2,0.1,0.3,0.3,0.4,0.6
			c0.1,0.3,0.2,0.6,0.2,1.1C155.7,326.8,155.8,327.4,155.8,328z"/>
		<path d="M210.2,304.1c0,1.5-0.4,2.5-1.1,3.1c-0.7,0.6-1.6,0.9-2.5,0.9h-33.5c0,2.8,0.3,5.4,0.9,7.6c0.6,2.3,1.5,4.2,2.8,5.8
			s3.1,2.9,5.2,3.7s4.7,1.3,7.8,1.3c2.4,0,4.6-0.2,6.5-0.6c1.9-0.4,3.5-0.8,4.9-1.3s2.5-0.9,3.4-1.3s1.6-0.6,2-0.6
			c0.3,0,0.5,0,0.7,0.2c0.2,0.1,0.4,0.3,0.5,0.6s0.2,0.6,0.2,1.1s0.1,1.1,0.1,1.7c0,0.5,0,0.9,0,1.3c0,0.4-0.1,0.7-0.2,1
			c0,0.3-0.2,0.6-0.3,0.7c-0.1,0.2-0.3,0.5-0.5,0.7s-0.8,0.6-1.8,1c-1,0.5-2.4,0.9-4,1.4s-3.5,0.9-5.6,1.2c-2.1,0.4-4.4,0.6-6.8,0.6
			c-4.2,0-7.9-0.6-11-1.8s-5.8-2.9-7.9-5.2c-2.2-2.3-3.8-5.2-4.9-8.6c-1.1-3.5-1.7-7.5-1.7-12.1c0-4.4,0.6-8.3,1.7-11.8
			c1.1-3.5,2.8-6.4,4.9-8.9s4.7-4.3,7.7-5.6s6.4-2,10.1-2c4,0,7.4,0.7,10.2,1.9c2.8,1.3,5.1,3,6.9,5.2c1.8,2.2,3.1,4.7,4,7.6
			c0.9,2.9,1.3,6.1,1.3,9.4L210.2,304.1L210.2,304.1L210.2,304.1z M200.8,301.4c0.1-4.9-1-8.8-3.3-11.5c-2.3-2.8-5.7-4.2-10.2-4.2
			c-2.3,0-4.3,0.4-6.1,1.3c-1.7,0.9-3.2,2-4.4,3.5s-2.1,3.1-2.7,5c-0.6,1.9-1,3.9-1.1,6C173.1,301.4,200.8,301.4,200.8,301.4z"/>
		<path d="M254.1,284.3c0,0.8,0,1.5,0,2.1s-0.1,1-0.2,1.3s-0.2,0.6-0.4,0.7c-0.2,0.2-0.4,0.3-0.7,0.3s-0.7-0.1-1.1-0.3
			c-0.4-0.2-0.9-0.3-1.5-0.5s-1.2-0.3-1.8-0.5c-0.7-0.2-1.4-0.2-2.2-0.2c-0.9,0-1.9,0.2-2.8,0.6c-0.9,0.4-1.8,1-2.9,1.9
			c-1,0.9-2,2-3.1,3.5c-1.1,1.4-2.3,3.2-3.6,5.3v33.4c0,0.3-0.1,0.6-0.2,0.7c-0.2,0.2-0.4,0.4-0.7,0.6c-0.4,0.2-0.8,0.3-1.4,0.4
			c-0.6,0.1-1.4,0.1-2.3,0.1c-0.9,0-1.7,0-2.3-0.1s-1.1-0.2-1.5-0.4s-0.6-0.3-0.7-0.6c-0.1-0.2-0.2-0.5-0.2-0.7V281
			c0-0.3,0-0.6,0.2-0.7s0.4-0.4,0.7-0.6c0.4-0.2,0.8-0.3,1.3-0.3c0.6,0,1.2-0.1,2.1-0.1c0.8,0,1.5,0,2.1,0.1s1,0.2,1.3,0.3
			c0.3,0.2,0.5,0.4,0.7,0.6c0.1,0.2,0.2,0.5,0.2,0.7v7.4c1.4-2,2.7-3.7,3.9-5s2.4-2.3,3.5-3s2.2-1.3,3.3-1.5
			c1.1-0.3,2.2-0.4,3.3-0.4c0.5,0,1.1,0,1.7,0.1c0.6,0,1.3,0.2,2,0.3c0.7,0.2,1.3,0.3,1.8,0.5c0.6,0.2,0.9,0.4,1.2,0.6
			c0.2,0.2,0.4,0.4,0.5,0.6c0.1,0.2,0.1,0.4,0.2,0.7c0,0.3,0.1,0.7,0.1,1.2C254.1,282.7,254.1,283.4,254.1,284.3z"/>
		<path d="M275.2,263.7c0,2.2-0.4,3.7-1.3,4.5c-0.8,0.8-2.4,1.2-4.6,1.2s-3.7-0.4-4.5-1.2s-1.2-2.2-1.2-4.4s0.4-3.7,1.3-4.5
			c0.8-0.8,2.4-1.2,4.6-1.2s3.7,0.4,4.5,1.2C274.7,260.2,275.2,261.6,275.2,263.7z M274.1,331.8c0,0.3-0.1,0.6-0.2,0.7
			c-0.2,0.2-0.4,0.4-0.7,0.6c-0.4,0.2-0.8,0.3-1.4,0.4c-0.6,0.1-1.4,0.1-2.3,0.1s-1.7,0-2.3-0.1c-0.6-0.1-1.1-0.2-1.5-0.4
			s-0.6-0.3-0.7-0.6c-0.1-0.2-0.2-0.5-0.2-0.7v-50.9c0-0.3,0.1-0.5,0.2-0.7s0.4-0.4,0.7-0.6c0.4-0.2,0.8-0.3,1.5-0.4
			c0.6-0.1,1.4-0.1,2.3-0.1s1.7,0,2.3,0.1s1.1,0.2,1.4,0.4s0.6,0.4,0.7,0.6c0.2,0.2,0.2,0.5,0.2,0.7V331.8z"/>
		<path d="M338.6,305.8c0,4.2-0.6,8-1.7,11.4c-1.1,3.5-2.7,6.5-4.9,9c-2.2,2.5-4.9,4.5-8.1,5.9c-3.3,1.4-7,2.1-11.3,2.1
			c-4.2,0-7.8-0.6-10.9-1.8c-3.1-1.3-5.7-3.1-7.8-5.4c-2.1-2.4-3.6-5.3-4.6-8.6s-1.5-7.2-1.5-11.5c0-4.2,0.6-8,1.6-11.4
			c1.1-3.5,2.7-6.5,4.9-9c2.2-2.5,4.9-4.5,8.1-5.9s7-2.1,11.4-2.1c4.2,0,7.8,0.6,10.9,1.9c3.1,1.3,5.7,3.1,7.8,5.4
			c2.1,2.4,3.6,5.3,4.7,8.6C338.1,297.7,338.6,301.6,338.6,305.8z M328.9,306.4c0-2.8-0.2-5.3-0.7-7.8s-1.4-4.6-2.6-6.4
			c-1.2-1.8-2.8-3.3-4.8-4.4c-2-1.1-4.5-1.6-7.5-1.6c-2.8,0-5.1,0.5-7.2,1.5c-2,1-3.7,2.4-5,4.2s-2.2,3.9-2.9,6.4s-0.9,5.1-0.9,8
			c0,2.8,0.3,5.4,0.8,7.9c0.5,2.4,1.4,4.6,2.6,6.4c1.2,1.8,2.8,3.3,4.8,4.4c2,1.1,4.5,1.6,7.5,1.6c2.8,0,5.1-0.5,7.1-1.5
			s3.7-2.4,5-4.1c1.3-1.8,2.2-3.9,2.9-6.3C328.6,312,328.9,309.4,328.9,306.4z"/>
		<path d="M382,284.3c0,0.8,0,1.5,0,2.1s-0.1,1-0.2,1.3s-0.3,0.6-0.4,0.7c-0.2,0.2-0.4,0.3-0.7,0.3c-0.3,0-0.7-0.1-1.1-0.3
			s-0.9-0.3-1.5-0.5s-1.2-0.3-1.8-0.5c-0.7-0.2-1.4-0.2-2.2-0.2c-0.9,0-1.9,0.2-2.8,0.6c-0.9,0.4-1.8,1-2.9,1.9c-1,0.9-2,2-3.1,3.5
			c-1.1,1.4-2.3,3.2-3.6,5.3v33.4c0,0.3-0.1,0.6-0.2,0.7c-0.2,0.2-0.4,0.4-0.7,0.6c-0.4,0.2-0.8,0.3-1.4,0.4
			c-0.6,0.1-1.4,0.1-2.3,0.1s-1.7,0-2.3-0.1c-0.6-0.1-1.1-0.2-1.5-0.4s-0.6-0.3-0.7-0.6c-0.1-0.2-0.2-0.5-0.2-0.7V281
			c0-0.3,0-0.6,0.2-0.7s0.4-0.4,0.7-0.6c0.4-0.2,0.8-0.3,1.3-0.3c0.6,0,1.2-0.1,2.1-0.1c0.8,0,1.5,0,2.1,0.1s1,0.2,1.3,0.3
			c0.3,0.2,0.5,0.4,0.7,0.6c0.2,0.2,0.2,0.5,0.2,0.7v7.4c1.4-2,2.7-3.7,3.9-5c1.2-1.3,2.4-2.3,3.5-3s2.2-1.3,3.3-1.5
			c1.1-0.3,2.2-0.4,3.3-0.4c0.5,0,1.1,0,1.7,0.1c0.6,0,1.3,0.2,2,0.3c0.7,0.2,1.3,0.3,1.8,0.5c0.6,0.2,0.9,0.4,1.1,0.6
			c0.2,0.2,0.4,0.4,0.5,0.6c0.1,0.2,0.1,0.4,0.2,0.7c0,0.3,0.1,0.7,0.1,1.2C382,282.7,382,283.4,382,284.3z"/>
		<path d="M422.6,317.9c0,2.6-0.5,4.9-1.5,7c-1,2-2.3,3.7-4.1,5.1s-3.9,2.4-6.3,3.2c-2.4,0.7-5.1,1.1-8.1,1.1
			c-1.8,0-3.5-0.2-5.2-0.4s-3.1-0.6-4.4-1.1c-1.3-0.4-2.4-0.9-3.3-1.4s-1.6-0.9-2-1.3c-0.4-0.4-0.7-0.9-0.9-1.6
			c-0.2-0.7-0.3-1.6-0.3-2.8c0-0.7,0-1.3,0.1-1.8s0.2-0.9,0.3-1.2c0.1-0.3,0.3-0.5,0.5-0.7s0.4-0.2,0.7-0.2c0.4,0,1,0.3,1.8,0.7
			c0.8,0.5,1.8,1.1,3,1.7c1.2,0.6,2.6,1.2,4.2,1.7s3.5,0.7,5.6,0.7c1.6,0,3-0.2,4.3-0.5s2.4-0.8,3.3-1.5s1.7-1.5,2.2-2.5
			s0.7-2.2,0.7-3.6c0-1.4-0.4-2.6-1.1-3.6s-1.7-1.8-2.9-2.6c-1.2-0.7-2.6-1.4-4.1-2s-3.1-1.2-4.7-1.8s-3.2-1.4-4.7-2.2
			s-2.9-1.8-4.1-2.9c-1.2-1.2-2.2-2.6-2.9-4.2c-0.7-1.6-1.1-3.6-1.1-5.8c0-2,0.4-3.9,1.2-5.7c0.8-1.8,1.9-3.4,3.5-4.8
			c1.5-1.4,3.5-2.5,5.8-3.3s5-1.3,8.1-1.3c1.4,0,2.7,0.1,4.1,0.4c1.4,0.2,2.6,0.5,3.7,0.9s2,0.7,2.8,1.1c0.8,0.4,1.4,0.7,1.8,1.1
			c0.4,0.3,0.7,0.6,0.8,0.8c0.1,0.2,0.2,0.5,0.3,0.7c0,0.3,0.1,0.6,0.2,1.1c0,0.4,0.1,0.9,0.1,1.5s0,1.2-0.1,1.7
			c0,0.5-0.2,0.9-0.3,1.2s-0.3,0.5-0.5,0.7s-0.4,0.2-0.6,0.2c-0.4,0-0.8-0.2-1.5-0.6c-0.6-0.4-1.5-0.9-2.5-1.3
			c-1-0.5-2.2-0.9-3.6-1.3c-1.4-0.4-2.9-0.6-4.7-0.6c-1.6,0-3,0.2-4.2,0.6c-1.2,0.4-2.2,0.9-2.9,1.5c-0.8,0.7-1.4,1.5-1.8,2.4
			s-0.6,1.9-0.6,2.9c0,1.5,0.4,2.7,1.1,3.7s1.7,1.9,2.9,2.6c1.2,0.7,2.6,1.5,4.1,2c1.5,0.6,3.1,1.2,4.7,1.9c1.6,0.6,3.2,1.4,4.8,2.2
			c1.6,0.8,2.9,1.8,4.2,2.9c1.2,1.1,2.2,2.5,2.9,4.1C422.2,313.9,422.6,315.7,422.6,317.9z"/>
		<path d="M488.5,328c0,1.1-0.1,2-0.2,2.6c-0.2,0.6-0.4,1.1-0.7,1.4c-0.3,0.3-0.7,0.6-1.4,0.9c-0.6,0.3-1.3,0.5-2.1,0.7
			c-0.8,0.2-1.6,0.3-2.5,0.4c-0.9,0.1-1.7,0.2-2.6,0.2c-2.6,0-4.9-0.4-6.8-1.1s-3.4-1.8-4.6-3.2s-2.1-3.2-2.6-5.4
			c-0.6-2.2-0.8-4.7-0.8-7.7v-29.7h-7.1c-0.6,0-1-0.3-1.4-0.9c-0.4-0.6-0.5-1.6-0.5-2.9c0-0.7,0-1.3,0.2-1.8
			c0.1-0.5,0.2-0.9,0.4-1.2c0.2-0.3,0.4-0.6,0.6-0.7c0.2-0.1,0.5-0.2,0.8-0.2h7.1v-12c0-0.3,0.1-0.5,0.2-0.7s0.4-0.4,0.7-0.6
			c0.4-0.2,0.8-0.3,1.5-0.4c0.6-0.1,1.4-0.1,2.3-0.1s1.7,0,2.3,0.1c0.6,0.1,1.1,0.2,1.4,0.4c0.4,0.2,0.6,0.4,0.7,0.6
			c0.2,0.2,0.2,0.5,0.2,0.7v12.1h13c0.3,0,0.6,0,0.8,0.2c0.2,0.1,0.4,0.4,0.6,0.7s0.3,0.7,0.4,1.2s0.1,1.1,0.1,1.8
			c0,1.4-0.2,2.4-0.5,2.9c-0.4,0.6-0.8,0.9-1.4,0.9h-13v28.4c0,3.5,0.5,6.2,1.6,7.9c1,1.8,2.9,2.7,5.6,2.7c0.9,0,1.7-0.1,2.3-0.3
			c0.7-0.2,1.3-0.4,1.8-0.6c0.5-0.2,1-0.4,1.4-0.6c0.4-0.2,0.7-0.3,1-0.3c0.2,0,0.4,0,0.6,0.2c0.2,0.1,0.3,0.3,0.4,0.6
			s0.2,0.6,0.2,1.1C488.5,326.8,488.5,327.4,488.5,328z"/>
		<path d="M544.6,331.8c0,0.3-0.1,0.6-0.2,0.7c-0.2,0.2-0.4,0.4-0.7,0.6c-0.3,0.2-0.8,0.3-1.4,0.4c-0.6,0.1-1.4,0.1-2.3,0.1
			c-0.9,0-1.7,0-2.3-0.1s-1.1-0.2-1.4-0.4c-0.4-0.2-0.6-0.3-0.7-0.6c-0.2-0.2-0.2-0.5-0.2-0.7V302c0-2.9-0.2-5.2-0.7-7
			c-0.4-1.8-1.1-3.3-2-4.6s-2-2.3-3.4-2.9s-3-1-4.8-1c-2.3,0-4.7,0.8-7,2.5s-4.8,4.1-7.3,7.3v35.5c0,0.3-0.1,0.6-0.2,0.7
			c-0.2,0.2-0.4,0.4-0.7,0.6c-0.4,0.2-0.8,0.3-1.4,0.4c-0.6,0.1-1.4,0.1-2.3,0.1s-1.7,0-2.3-0.1c-0.6-0.1-1.1-0.2-1.5-0.4
			s-0.6-0.3-0.7-0.6c-0.1-0.2-0.2-0.5-0.2-0.7v-75.4c0-0.3,0.1-0.6,0.2-0.8s0.4-0.4,0.7-0.6s0.8-0.3,1.5-0.3
			c0.6-0.1,1.4-0.1,2.3-0.1s1.7,0,2.3,0.1c0.6,0.1,1.1,0.2,1.4,0.3c0.4,0.2,0.6,0.4,0.7,0.6s0.2,0.5,0.2,0.8v30.5
			c2.7-2.8,5.4-5,8.1-6.3c2.7-1.4,5.5-2.1,8.2-2.1c3.4,0,6.2,0.6,8.6,1.7c2.3,1.1,4.2,2.7,5.6,4.6c1.4,1.9,2.5,4.2,3.1,6.8
			s0.9,5.7,0.9,9.4L544.6,331.8L544.6,331.8z"/>
		<path d="M599.9,331.9c0,0.4-0.2,0.8-0.4,1c-0.3,0.2-0.7,0.4-1.3,0.5c-0.5,0.1-1.3,0.2-2.3,0.2s-1.8,0-2.4-0.2
			c-0.6-0.1-1-0.3-1.3-0.5s-0.4-0.6-0.4-1v-5.1c-2.2,2.4-4.7,4.2-7.4,5.5c-2.8,1.3-5.6,2-8.7,2c-2.7,0-5.1-0.4-7.3-1.1s-4-1.7-5.5-3
			s-2.7-2.9-3.6-4.9c-0.9-1.9-1.3-4.1-1.3-6.6c0-2.9,0.6-5.3,1.8-7.5c1.2-2.1,2.9-3.9,5-5.3c2.2-1.4,4.9-2.4,8-3.1
			c3.2-0.7,6.7-1.1,10.7-1.1h7v-4c0-2-0.2-3.7-0.6-5.2c-0.4-1.5-1.1-2.8-2-3.8s-2.1-1.8-3.6-2.3s-3.3-0.8-5.4-0.8
			c-2.3,0-4.4,0.3-6.2,0.8c-1.8,0.6-3.4,1.1-4.8,1.8c-1.4,0.7-2.5,1.3-3.5,1.8c-0.9,0.6-1.6,0.8-2.1,0.8c-0.3,0-0.6-0.1-0.8-0.2
			c-0.2-0.2-0.4-0.4-0.6-0.7c-0.2-0.3-0.3-0.7-0.4-1.2c-0.1-0.5-0.1-1-0.1-1.6c0-0.9,0.1-1.7,0.2-2.2c0.2-0.6,0.5-1.1,1-1.6
			s1.4-1.1,2.6-1.7c1.3-0.7,2.7-1.3,4.3-1.8c1.6-0.6,3.4-1,5.3-1.4c1.9-0.4,3.9-0.6,5.8-0.6c3.7,0,6.8,0.4,9.3,1.3
			c2.6,0.8,4.6,2,6.2,3.7c1.6,1.6,2.8,3.6,3.5,6s1.1,5.1,1.1,8.3L599.9,331.9L599.9,331.9z M590.7,308.6h-8c-2.6,0-4.8,0.2-6.7,0.7
			s-3.5,1.1-4.7,1.9c-1.3,0.9-2.2,1.9-2.8,3.1c-0.6,1.2-0.9,2.6-0.9,4.1c0,2.6,0.8,4.8,2.5,6.3c1.7,1.6,4,2.4,7,2.4
			c2.5,0,4.7-0.6,6.8-1.9c2.1-1.3,4.3-3.1,6.6-5.7L590.7,308.6L590.7,308.6z"/>
		<path d="M642.4,328c0,1.1-0.1,2-0.2,2.6c-0.2,0.6-0.4,1.1-0.7,1.4c-0.3,0.3-0.7,0.6-1.4,0.9c-0.6,0.3-1.3,0.5-2.1,0.7
			s-1.6,0.3-2.5,0.4c-0.9,0.1-1.7,0.2-2.6,0.2c-2.6,0-4.9-0.4-6.8-1.1s-3.4-1.8-4.6-3.2s-2.1-3.2-2.6-5.4c-0.6-2.2-0.8-4.7-0.8-7.7
			v-29.7H611c-0.6,0-1-0.3-1.4-0.9c-0.4-0.6-0.5-1.6-0.5-2.9c0-0.7,0-1.3,0.1-1.8s0.2-0.9,0.4-1.2s0.4-0.6,0.6-0.7
			c0.2-0.1,0.5-0.2,0.8-0.2h7.1v-12c0-0.3,0.1-0.5,0.2-0.7c0.2-0.2,0.4-0.4,0.7-0.6c0.4-0.2,0.8-0.3,1.5-0.4
			c0.6-0.1,1.4-0.1,2.3-0.1c0.9,0,1.7,0,2.3,0.1s1.1,0.2,1.4,0.4c0.4,0.2,0.6,0.4,0.7,0.6c0.2,0.2,0.2,0.5,0.2,0.7v12.1h13
			c0.3,0,0.6,0,0.8,0.2c0.2,0.1,0.4,0.4,0.6,0.7c0.2,0.3,0.3,0.7,0.4,1.2c0.1,0.5,0.1,1.1,0.1,1.8c0,1.4-0.2,2.4-0.5,2.9
			c-0.4,0.6-0.8,0.9-1.4,0.9h-13v28.4c0,3.5,0.5,6.2,1.6,7.9c1,1.8,2.9,2.7,5.6,2.7c0.9,0,1.7-0.1,2.3-0.3c0.7-0.2,1.3-0.4,1.8-0.6
			c0.6-0.2,1-0.4,1.4-0.6c0.4-0.2,0.7-0.3,1-0.3c0.2,0,0.4,0,0.6,0.2c0.2,0.1,0.3,0.3,0.4,0.6c0.1,0.3,0.2,0.6,0.3,1.1
			C642.4,326.8,642.4,327.4,642.4,328z"/>
		<path d="M691.3,263.7c0,2.2-0.4,3.7-1.3,4.5c-0.8,0.8-2.4,1.2-4.6,1.2c-2.2,0-3.7-0.4-4.5-1.2s-1.2-2.2-1.2-4.4s0.4-3.7,1.3-4.5
			c0.8-0.8,2.4-1.2,4.6-1.2c2.2,0,3.7,0.4,4.5,1.2C690.9,260.2,691.3,261.6,691.3,263.7z M690.2,331.8c0,0.3-0.1,0.6-0.2,0.7
			c-0.2,0.2-0.4,0.4-0.7,0.6c-0.4,0.2-0.8,0.3-1.4,0.4c-0.6,0.1-1.4,0.1-2.3,0.1c-0.9,0-1.7,0-2.3-0.1s-1.1-0.2-1.5-0.4
			s-0.6-0.3-0.7-0.6c-0.2-0.2-0.2-0.5-0.2-0.7v-50.9c0-0.3,0-0.5,0.2-0.7c0.1-0.2,0.4-0.4,0.7-0.6c0.4-0.2,0.8-0.3,1.5-0.4
			c0.6-0.1,1.4-0.1,2.3-0.1c0.9,0,1.7,0,2.3,0.1s1.1,0.2,1.4,0.4c0.4,0.2,0.6,0.4,0.7,0.6c0.2,0.2,0.2,0.5,0.2,0.7V331.8z"/>
		<path d="M751.2,331.8c0,0.3-0.1,0.6-0.2,0.7c-0.2,0.2-0.4,0.4-0.7,0.6c-0.4,0.2-0.8,0.3-1.4,0.4c-0.6,0.1-1.4,0.1-2.2,0.1
			c-0.9,0-1.7,0-2.3-0.1s-1.1-0.2-1.4-0.4c-0.4-0.2-0.6-0.3-0.7-0.6c-0.2-0.2-0.2-0.5-0.2-0.7V302c0-2.9-0.2-5.2-0.7-7
			c-0.4-1.8-1.1-3.3-2-4.6s-2-2.3-3.4-2.9s-3-1-4.8-1c-2.4,0-4.7,0.8-7,2.5c-2.4,1.7-4.8,4.1-7.3,7.3v35.5c0,0.3-0.1,0.6-0.2,0.7
			c-0.2,0.2-0.4,0.4-0.7,0.6c-0.4,0.2-0.8,0.3-1.4,0.4c-0.6,0.1-1.4,0.1-2.3,0.1c-0.9,0-1.7,0-2.3-0.1s-1.1-0.2-1.5-0.4
			s-0.6-0.3-0.7-0.6c-0.2-0.2-0.2-0.5-0.2-0.7V281c0-0.3,0-0.6,0.2-0.7c0.1-0.2,0.4-0.4,0.7-0.6c0.4-0.2,0.8-0.3,1.3-0.3
			s1.2-0.1,2.1-0.1c0.8,0,1.5,0,2.1,0.1s1,0.2,1.3,0.3c0.3,0.2,0.5,0.4,0.7,0.6c0.2,0.2,0.2,0.5,0.2,0.7v6.7c2.9-3.2,5.7-5.5,8.6-7
			c2.8-1.5,5.7-2.2,8.6-2.2c3.4,0,6.2,0.6,8.6,1.7c2.3,1.1,4.2,2.7,5.6,4.6c1.4,1.9,2.5,4.2,3.1,6.8s0.9,5.7,0.9,9.3L751.2,331.8
			L751.2,331.8z"/>
		<path d="M800.1,317.9c0,2.6-0.5,4.9-1.5,7c-0.9,2-2.3,3.7-4.1,5.1s-3.9,2.4-6.3,3.2c-2.4,0.7-5.1,1.1-8.1,1.1
			c-1.8,0-3.5-0.2-5.2-0.4c-1.7-0.3-3.1-0.6-4.4-1.1c-1.3-0.4-2.4-0.9-3.3-1.4c-0.9-0.5-1.6-0.9-2-1.3c-0.4-0.4-0.7-0.9-0.9-1.6
			c-0.2-0.7-0.3-1.6-0.3-2.8c0-0.7,0-1.3,0.1-1.8s0.2-0.9,0.3-1.2s0.3-0.5,0.5-0.7s0.4-0.2,0.7-0.2c0.4,0,1,0.3,1.8,0.7
			c0.8,0.5,1.8,1.1,3,1.7c1.2,0.6,2.6,1.2,4.2,1.7c1.6,0.5,3.5,0.7,5.6,0.7c1.6,0,3-0.2,4.3-0.5s2.4-0.8,3.3-1.5s1.7-1.5,2.2-2.5
			s0.7-2.2,0.7-3.6c0-1.4-0.4-2.6-1.1-3.6s-1.7-1.8-2.9-2.6c-1.2-0.7-2.6-1.4-4.1-2s-3.1-1.2-4.7-1.8c-1.6-0.6-3.2-1.4-4.7-2.2
			s-2.9-1.8-4.1-2.9c-1.2-1.2-2.2-2.6-2.9-4.2c-0.7-1.6-1.1-3.6-1.1-5.8c0-2,0.4-3.9,1.1-5.7c0.8-1.8,1.9-3.4,3.5-4.8
			c1.5-1.4,3.5-2.5,5.8-3.3s5-1.3,8.1-1.3c1.4,0,2.7,0.1,4.1,0.4c1.4,0.2,2.6,0.5,3.7,0.9c1.1,0.4,2,0.7,2.8,1.1
			c0.8,0.4,1.4,0.7,1.8,1.1c0.4,0.3,0.7,0.6,0.8,0.8s0.2,0.5,0.3,0.7c0,0.3,0.1,0.6,0.2,1.1c0,0.4,0.1,0.9,0.1,1.5s0,1.2-0.1,1.7
			c0,0.5-0.2,0.9-0.3,1.2c-0.2,0.3-0.3,0.5-0.5,0.7s-0.4,0.2-0.6,0.2c-0.4,0-0.8-0.2-1.5-0.6c-0.6-0.4-1.5-0.9-2.5-1.3
			c-1-0.5-2.2-0.9-3.6-1.3c-1.4-0.4-2.9-0.6-4.7-0.6c-1.6,0-3,0.2-4.2,0.6c-1.2,0.4-2.2,0.9-3,1.5c-0.8,0.7-1.4,1.5-1.8,2.4
			s-0.6,1.9-0.6,2.9c0,1.5,0.4,2.7,1.1,3.7c0.7,1,1.7,1.9,2.9,2.6c1.2,0.7,2.6,1.5,4.1,2c1.6,0.6,3.1,1.2,4.7,1.9
			c1.6,0.6,3.2,1.4,4.8,2.2s2.9,1.8,4.2,2.9c1.2,1.1,2.2,2.5,2.9,4.1C799.8,313.9,800.1,315.7,800.1,317.9z"/>
		<path d="M860.3,305.6c0,4.4-0.5,8.4-1.5,12c-1,3.5-2.4,6.6-4.2,9c-1.9,2.5-4.2,4.4-6.9,5.7c-2.8,1.3-5.9,2-9.4,2
			c-1.5,0-2.9-0.2-4.2-0.4c-1.3-0.3-2.6-0.8-3.8-1.4c-1.2-0.7-2.4-1.5-3.7-2.4c-1.2-1-2.5-2.1-3.9-3.5V352c0,0.3-0.1,0.6-0.2,0.8
			s-0.4,0.4-0.7,0.6c-0.4,0.2-0.8,0.3-1.4,0.4c-0.6,0.1-1.4,0.1-2.3,0.1c-0.9,0-1.7,0-2.3-0.1s-1.1-0.2-1.5-0.4s-0.6-0.4-0.7-0.6
			c-0.2-0.2-0.2-0.5-0.2-0.8v-71c0-0.4,0-0.6,0.2-0.8c0.1-0.2,0.4-0.4,0.7-0.6c0.3-0.2,0.8-0.3,1.3-0.3s1.2-0.1,1.9-0.1
			c0.8,0,1.5,0,2,0.1c0.5,0,0.9,0.2,1.3,0.3c0.4,0.2,0.6,0.4,0.7,0.6c0.2,0.2,0.2,0.5,0.2,0.8v6.8c1.5-1.6,3-2.9,4.5-4.1
			c1.4-1.2,2.9-2.1,4.3-2.9c1.5-0.7,2.9-1.4,4.5-1.8s3.1-0.6,4.8-0.6c3.7,0,6.8,0.7,9.4,2.2c2.6,1.5,4.7,3.4,6.4,5.9
			s2.8,5.4,3.6,8.7C859.9,298.4,860.3,301.9,860.3,305.6z M850.6,306.7c0-2.6-0.2-5.1-0.6-7.5c-0.4-2.4-1.1-4.6-2-6.5
			c-1-1.9-2.3-3.4-3.9-4.5c-1.7-1.1-3.7-1.7-6.1-1.7c-1.2,0-2.4,0.2-3.6,0.6c-1.2,0.4-2.4,0.9-3.6,1.7c-1.2,0.8-2.5,1.8-3.8,3.1
			s-2.8,2.8-4.2,4.7v20.2c2.6,3.1,5,5.5,7.3,7.2s4.8,2.5,7.3,2.5c2.4,0,4.4-0.6,6.1-1.7c1.7-1.1,3.1-2.6,4.1-4.5
			c1.1-1.9,1.8-4,2.3-6.3C850.3,311.4,850.6,309,850.6,306.7z"/>
		<path d="M884.7,263.7c0,2.2-0.4,3.7-1.3,4.5c-0.8,0.8-2.4,1.2-4.6,1.2c-2.2,0-3.7-0.4-4.5-1.2s-1.2-2.2-1.2-4.4s0.4-3.7,1.3-4.5
			c0.8-0.8,2.4-1.2,4.6-1.2c2.2,0,3.7,0.4,4.5,1.2C884.3,260.2,884.7,261.6,884.7,263.7z M883.6,331.8c0,0.3-0.1,0.6-0.2,0.7
			c-0.2,0.2-0.4,0.4-0.7,0.6c-0.4,0.2-0.8,0.3-1.4,0.4c-0.6,0.1-1.4,0.1-2.3,0.1c-0.9,0-1.7,0-2.3-0.1s-1.1-0.2-1.5-0.4
			s-0.6-0.3-0.7-0.6c-0.2-0.2-0.2-0.5-0.2-0.7v-50.9c0-0.3,0-0.5,0.2-0.7c0.1-0.2,0.4-0.4,0.7-0.6c0.4-0.2,0.8-0.3,1.5-0.4
			c0.6-0.1,1.4-0.1,2.3-0.1c0.9,0,1.7,0,2.3,0.1s1.1,0.2,1.4,0.4c0.3,0.2,0.6,0.4,0.7,0.6c0.2,0.2,0.2,0.5,0.2,0.7V331.8z"/>
		<path d="M930.5,284.3c0,0.8,0,1.5,0,2.1s-0.1,1-0.2,1.3c-0.1,0.3-0.3,0.6-0.4,0.7c-0.2,0.2-0.4,0.3-0.7,0.3s-0.7-0.1-1.1-0.3
			c-0.4-0.2-0.9-0.3-1.5-0.5s-1.2-0.3-1.8-0.5c-0.7-0.2-1.4-0.2-2.2-0.2c-0.9,0-1.9,0.2-2.8,0.6c-0.9,0.4-1.8,1-2.9,1.9
			c-1,0.9-2,2-3.1,3.5c-1.1,1.4-2.3,3.2-3.6,5.3v33.4c0,0.3-0.1,0.6-0.2,0.7c-0.2,0.2-0.4,0.4-0.7,0.6c-0.4,0.2-0.8,0.3-1.4,0.4
			c-0.6,0.1-1.4,0.1-2.3,0.1c-0.9,0-1.7,0-2.2-0.1c-0.6-0.1-1.1-0.2-1.5-0.4s-0.6-0.3-0.7-0.6c-0.1-0.2-0.2-0.5-0.2-0.7V281
			c0-0.3,0-0.6,0.2-0.7c0.1-0.2,0.4-0.4,0.7-0.6c0.4-0.2,0.8-0.3,1.3-0.3c0.6,0,1.2-0.1,2.1-0.1c0.8,0,1.5,0,2.1,0.1
			c0.6,0,1,0.2,1.3,0.3c0.3,0.2,0.5,0.4,0.7,0.6c0.2,0.2,0.2,0.5,0.2,0.7v7.4c1.4-2,2.7-3.7,3.9-5s2.4-2.3,3.5-3s2.2-1.3,3.3-1.5
			c1.1-0.3,2.2-0.4,3.3-0.4c0.5,0,1,0,1.7,0.1c0.6,0,1.3,0.2,1.9,0.3c0.7,0.2,1.3,0.3,1.8,0.5c0.6,0.2,0.9,0.4,1.1,0.6
			c0.2,0.2,0.4,0.4,0.5,0.6c0.1,0.2,0.2,0.4,0.2,0.7s0.1,0.7,0.1,1.2C930.5,282.7,930.5,283.4,930.5,284.3z"/>
		<path d="M983,304.1c0,1.5-0.4,2.5-1.1,3.1c-0.7,0.6-1.6,0.9-2.5,0.9h-33.5c0,2.8,0.3,5.4,0.9,7.6c0.6,2.3,1.5,4.2,2.8,5.8
			s3.1,2.9,5.1,3.7c2.1,0.9,4.7,1.3,7.8,1.3c2.4,0,4.6-0.2,6.5-0.6c1.9-0.4,3.5-0.8,4.9-1.3s2.5-0.9,3.4-1.3s1.6-0.6,2-0.6
			c0.3,0,0.5,0,0.7,0.2c0.2,0.1,0.4,0.3,0.5,0.6s0.2,0.6,0.3,1.1c0,0.5,0.1,1.1,0.1,1.7c0,0.5,0,0.9,0,1.3c0,0.4-0.1,0.7-0.2,1
			c0,0.3-0.2,0.6-0.3,0.7c-0.1,0.2-0.3,0.5-0.5,0.7s-0.8,0.6-1.8,1c-1,0.5-2.4,0.9-4,1.4s-3.5,0.9-5.6,1.2c-2.1,0.4-4.4,0.6-6.8,0.6
			c-4.2,0-7.9-0.6-11-1.8s-5.8-2.9-7.9-5.2c-2.1-2.3-3.8-5.2-4.9-8.6c-1.1-3.5-1.7-7.5-1.7-12.1c0-4.4,0.6-8.3,1.7-11.8
			c1.1-3.5,2.8-6.4,4.9-8.9c2.1-2.4,4.7-4.3,7.7-5.6s6.4-2,10.1-2c4,0,7.4,0.7,10.2,1.9c2.8,1.3,5.1,3,6.9,5.2
			c1.8,2.2,3.1,4.7,4,7.6c0.9,2.9,1.3,6.1,1.3,9.4L983,304.1L983,304.1z M973.6,301.4c0.1-4.9-1-8.8-3.3-11.5
			c-2.3-2.8-5.7-4.2-10.2-4.2c-2.3,0-4.4,0.4-6.1,1.3c-1.7,0.9-3.2,2-4.4,3.5s-2.1,3.1-2.8,5s-1,3.9-1.1,6
			C945.8,301.4,973.6,301.4,973.6,301.4z"/>
	</g>
</g>
</svg>
